<?xml version="1.0" encoding="UTF-8" standalone="no"?>
<svg
   xmlns:dc="http://purl.org/dc/elements/1.1/"
   xmlns:cc="http://creativecommons.org/ns#"
   xmlns:rdf="http://www.w3.org/1999/02/22-rdf-syntax-ns#"
   xmlns:svg="http://www.w3.org/2000/svg"
   xmlns="http://www.w3.org/2000/svg"
   xmlns:sodipodi="http://sodipodi.sourceforge.net/DTD/sodipodi-0.dtd"
   xmlns:inkscape="http://www.inkscape.org/namespaces/inkscape"
   width="800px"
   height="800px"
   viewBox="0 0 1024 1024"
   fill="#ffffff"
   class="icon"
   version="1.1"
   stroke="#ffffff"
   id="svg7"
   sodipodi:docname="bezpieczenstwo.svg"
   inkscape:version="1.0.1 (3bc2e813f5, 2020-09-07)">
  <metadata
     id="metadata13">
    <rdf:RDF>
      <cc:Work
         rdf:about="">
        <dc:format>image/svg+xml</dc:format>
        <dc:type
           rdf:resource="http://purl.org/dc/dcmitype/StillImage" />
      </cc:Work>
    </rdf:RDF>
  </metadata>
  <defs
     id="defs11" />
  <sodipodi:namedview
     pagecolor="#ffffff"
     bordercolor="#666666"
     borderopacity="1"
     objecttolerance="10"
     gridtolerance="10"
     guidetolerance="10"
     inkscape:pageopacity="0"
     inkscape:pageshadow="2"
     inkscape:window-width="1680"
     inkscape:window-height="987"
     id="namedview9"
     showgrid="false"
     inkscape:zoom="0.49529321"
     inkscape:cx="365.65762"
     inkscape:cy="548.14776"
     inkscape:window-x="1672"
     inkscape:window-y="-8"
     inkscape:window-maximized="1"
     inkscape:current-layer="svg7"
     inkscape:document-rotation="0" />
  <g
     id="SVGRepo_bgCarrier"
     stroke-width="0" />
  <g
     id="SVGRepo_tracerCarrier"
     stroke-linecap="round"
     stroke-linejoin="round" />
  <rect
     style="fill:#d1a517;fill-rule:evenodd;stroke:#003bdc;stroke-width:0;stroke-linecap:round;stroke-linejoin:round;paint-order:stroke markers fill;fill-opacity:1"
     id="rect15"
     width="1067.3972"
     height="1060.5094"
     x="-3.8987253"
     y="-5.3023872" />
  <g
     id="SVGRepo_iconCarrier"
     transform="matrix(0.83778283,0,0,0.86386316,101.8014,80.950116)">
    <path
       d="M 908.00847,139.71371 529.29921,3.059374 A 51.005609,51.005609 0 0 0 511.90203,0 C 505.95172,0 500.0461,1.03125 494.36735,3.090312 L 117.0159,139.74464 c -20.394679,7.3975 -34.704987,26.77468 -34.704988,48.47218 v 323.78146 c 0,72.28717 23.299368,144.58464 67.763418,214.87806 34.0828,53.87592 81.52029,106.71028 140.25683,157.04558 98.20935,84.15685 195.65557,132.70118 199.74963,134.72588 A 51.957797,51.957797 0 0 0 513.04672,1024 c 7.71718,0 15.48593,-1.7325 22.60843,-5.1975 4.09406,-1.9937 101.49559,-49.78186 199.79775,-133.60527 58.79498,-50.13249 105.52091,-102.96684 139.62777,-157.03183 44.44686,-70.44466 66.60154,-143.17183 66.60154,-216.16712 V 188.21682 c 0.003,-21.73187 -13.23093,-41.13311 -33.67374,-48.50311 z M 164.81089,511.75766 V 226.76837 c 0,-10.84875 6.64812,-20.53906 16.84718,-24.23781 L 502.41797,85.837786 c 2.86,-1.034687 6.14281,-1.797812 9.58031,-1.797812 V 512.00172 h 349.63146 c 0.0206,0 0.0447,0.46406 0.0447,0.75969 -0.0688,93.2559 -47.03873,185.67994 -139.58652,275.67022 -72.27341,70.27967 -154.38495,120.43622 -196.6215,144.09652 -3.91531,2.19656 -10.02718,3.23125 -13.46468,3.23125 V 511.86766 Z"
       id="path4" />
  </g>
</svg>
