<?xml version="1.0" encoding="UTF-8" standalone="no"?>
<svg
   xmlns:dc="http://purl.org/dc/elements/1.1/"
   xmlns:cc="http://creativecommons.org/ns#"
   xmlns:rdf="http://www.w3.org/1999/02/22-rdf-syntax-ns#"
   xmlns:svg="http://www.w3.org/2000/svg"
   xmlns="http://www.w3.org/2000/svg"
   xmlns:sodipodi="http://sodipodi.sourceforge.net/DTD/sodipodi-0.dtd"
   xmlns:inkscape="http://www.inkscape.org/namespaces/inkscape"
   height="800px"
   width="800px"
   version="1.1"
   id="_x32_"
   viewBox="0 0 512 512"
   xml:space="preserve"
   fill="#000000"
   sodipodi:docname="prostota.svg"
   inkscape:version="1.0.1 (3bc2e813f5, 2020-09-07)"><metadata
   id="metadata16"><rdf:RDF><cc:Work
       rdf:about=""><dc:format>image/svg+xml</dc:format><dc:type
         rdf:resource="http://purl.org/dc/dcmitype/StillImage" /></cc:Work></rdf:RDF></metadata><defs
   id="defs14" /><sodipodi:namedview
   pagecolor="#ffffff"
   bordercolor="#666666"
   borderopacity="1"
   objecttolerance="10"
   gridtolerance="10"
   guidetolerance="10"
   inkscape:pageopacity="0"
   inkscape:pageshadow="2"
   inkscape:window-width="1680"
   inkscape:window-height="987"
   id="namedview12"
   showgrid="false"
   inkscape:zoom="0.68278455"
   inkscape:cx="325.73567"
   inkscape:cy="507.62614"
   inkscape:window-x="-8"
   inkscape:window-y="-8"
   inkscape:window-maximized="1"
   inkscape:current-layer="_x32_" />

<rect
   style="fill:#7163c5;fill-rule:evenodd;stroke:#dbe3db;stroke-width:0;stroke-linecap:round;stroke-linejoin:round;paint-order:stroke markers fill;fill-opacity:1"
   id="rect841"
   width="516.47333"
   height="519.28534"
   x="-0.93733811"
   y="-2.8120146" /><g
   id="SVGRepo_bgCarrier"
   stroke-width="0" />

<g
   id="SVGRepo_tracerCarrier"
   stroke-linecap="round"
   stroke-linejoin="round" />



<g
   id="SVGRepo_iconCarrier"
   transform="matrix(0.75951017,0,0,0.7876344,61.565491,54.365574)"
   style="fill:#ffffff"> <style
   type="text/css"
   id="style4"> .st0{fill:#000000;} </style> <g
   id="g8"
   style="fill:#ffffff"> <path
   class="st0"
   d="m 461.36,130.632 c -8.348,-46.895 -44.191,-70.067 -88.241,-67.021 -40.568,2.808 -66.364,50.448 -79.088,79.63 6.878,-39.649 5.04,-95.924 -40.025,-126.622 -68.832,-46.903 -122.018,19.462 -127.531,28.212 -5.531,8.759 -5.723,10.518 7.28,10.973 3.868,0.131 38.31,-5.96 70.6,3.272 l 16.906,-12.723 5.163,20.826 c 26.287,12.277 45.714,38.914 45.976,76 C 253.008,113.794 220.666,92.888 182.286,89.056 115.519,82.388 56.155,129.624 49.662,194.553 c -0.508,5.225 -0.036,1.496 -0.036,1.496 -0.052,2.468 1.348,4.761 3.571,5.837 2.24,1.067 4.901,0.727 6.808,-0.874 0,0 1.54,-1.961 8.156,-6.887 11.621,-8.681 24.204,-16.102 37.488,-22.174 l 13.634,-20.284 14.666,9.783 c 24.186,-6.948 50.053,-9.53 76.602,-6.878 17.537,1.75 34.303,5.679 50.124,11.472 -37.173,-6.222 -95.487,7.648 -122.562,53.02 -33.55,56.222 -11.008,105.76 -7.438,109.812 2.922,3.334 7.053,1.374 8.645,-3.755 3.448,-11.209 11.936,-31.957 25.99,-54.778 l -2.8,-19.488 12.636,4.611 c 19.111,-27.03 45.905,-54.744 81.59,-71.659 -27.774,47.892 -54.043,116.401 -45.765,209.63 C 139.18,406.31 84.645,467.329 84.645,512 h 307.042 c 0,-43.281 -51.174,-101.918 -119.656,-117.25 -14.142,-40.97 -23.224,-107.361 9.765,-196.224 8.015,12.802 17.974,31.196 25.639,53.16 l 12.181,2.791 -6.983,14.202 c 4.952,18.753 7.788,39.422 6.318,61.105 -0.385,5.523 2.52,9.941 4.585,6.502 31.59,-52.888 29.069,-110.494 -4.113,-147.281 22.244,9.897 39.203,30.277 51.751,52.906 l 17.082,5.496 -5.216,19.383 c 9.941,24.537 15.156,48.373 16.522,61.875 0.542,5.321 2.958,8.996 6.878,3.396 23.399,-33.366 32.745,-100.956 0.56,-141.682 -24.975,-31.563 -73.89,-38.362 -104.938,-33.41 23.207,-31.406 76.586,-28.579 76.586,-28.579 0,0 10.325,-18.516 12.444,-21.098 2.117,-2.582 10.098,20.048 10.098,20.048 l 51.314,27.196 c 0,0 6.405,5.382 8.54,-2.468 1.295,-4.732 2.521,-12.1 0.316,-21.436 z"
   id="path6"
   style="fill:#ffffff" /> </g> </g></svg>
