<?xml version="1.0" encoding="UTF-8" standalone="no"?>
<svg
   xmlns:dc="http://purl.org/dc/elements/1.1/"
   xmlns:cc="http://creativecommons.org/ns#"
   xmlns:rdf="http://www.w3.org/1999/02/22-rdf-syntax-ns#"
   xmlns:svg="http://www.w3.org/2000/svg"
   xmlns="http://www.w3.org/2000/svg"
   xmlns:xlink="http://www.w3.org/1999/xlink"
   xmlns:sodipodi="http://sodipodi.sourceforge.net/DTD/sodipodi-0.dtd"
   xmlns:inkscape="http://www.inkscape.org/namespaces/inkscape"
   width="100.0px"
   height="100.0px"
   viewBox="0 0 100.0 100.0"
   version="1.1"
   id="SVGRoot"
   sodipodi:docname="fotoradar.svg"
   inkscape:version="1.0.1 (3bc2e813f5, 2020-09-07)">
  <defs
     id="defs2654">
    <linearGradient
       inkscape:collect="always"
       xlink:href="#linearGradient2644"
       id="linearGradient2652"
       x1="5.031404"
       y1="7.6115336"
       x2="15.962535"
       y2="17.522093"
       gradientUnits="userSpaceOnUse"
       gradientTransform="matrix(4.4805926,0,0,4.5453603,-2.543672,-4.597162)" />
    <linearGradient
       inkscape:collect="always"
       id="linearGradient2644">
      <stop
         style="stop-color:#ff6600;stop-opacity:1"
         offset="0"
         id="stop2640" />
      <stop
         style="stop-color:#aa4400;stop-opacity:1"
         offset="1"
         id="stop2642" />
    </linearGradient>
  </defs>
  <sodipodi:namedview
     id="base"
     pagecolor="#ffffff"
     bordercolor="#666666"
     borderopacity="1.0"
     inkscape:pageopacity="0.0"
     inkscape:pageshadow="2"
     inkscape:zoom="5.74489"
     inkscape:cx="12.916295"
     inkscape:cy="64.154627"
     inkscape:document-units="px"
     inkscape:current-layer="layer1"
     inkscape:document-rotation="0"
     showgrid="true"
     inkscape:window-width="1680"
     inkscape:window-height="987"
     inkscape:window-x="1672"
     inkscape:window-y="-8"
     inkscape:window-maximized="1">
    <inkscape:grid
       type="xygrid"
       id="grid3224" />
  </sodipodi:namedview>
  <metadata
     id="metadata2657">
    <rdf:RDF>
      <cc:Work
         rdf:about="">
        <dc:format>image/svg+xml</dc:format>
        <dc:type
           rdf:resource="http://purl.org/dc/dcmitype/StillImage" />
        <dc:title></dc:title>
      </cc:Work>
    </rdf:RDF>
  </metadata>
  <g
     inkscape:label="Warstwa 1"
     inkscape:groupmode="layer"
     id="layer1">
    <path
       d="m 51.223439,97.874286 c 8.717934,-19.181391 34.871737,-31.561541 34.871737,-57.544175 0,-21.187192 -15.612517,-38.3627843 -34.871737,-38.3627843 -19.259133,0 -34.871731,17.1755923 -34.871731,38.3627843 0,25.982634 26.153797,38.362784 34.871731,57.544175 z"
       stroke="#000000"
       stroke-width="2"
       stroke-linecap="round"
       stroke-linejoin="round"
       id="path2570"
       style="fill:url(#linearGradient2652);fill-opacity:1;stroke-width:0;stroke-miterlimit:4;stroke-dasharray:none" />
    <path
       d="m 51.223439,67.437989 c 14.781524,0 26.763568,-12.76514 26.763568,-28.512719 0,-15.747101 -11.982044,-28.51272 -26.763568,-28.51272 -14.781513,0 -26.763566,12.765619 -26.763566,28.51272 0,15.747579 11.982053,28.512719 26.763566,28.512719 z"
       stroke="#000000"
       stroke-width="2"
       stroke-linecap="round"
       stroke-linejoin="round"
       id="path2568"
       style="fill:#ffffff;fill-opacity:1;stroke-width:0;stroke-miterlimit:4;stroke-dasharray:none" />
    <g
       id="g3577"
       transform="matrix(0.63095238,0,0,0.62135673,31.809524,18.359298)">
	<path
   fill="#231f20"
   d="m 32,50 c 7.732,0 14,-6.268 14,-14 0,-7.732 -6.268,-14 -14,-14 -7.732,0 -14,6.268 -14,14 0,7.732 6.268,14 14,14 z m 0,-26 c 6.627,0 12,5.373 12,12 0,6.627 -5.373,12 -12,12 -6.627,0 -12,-5.373 -12,-12 0,-6.627 5.373,-12 12,-12 z"
   id="path3569" />

	<path
   fill="#231f20"
   d="m 60,12 c 0,0 -7,0 -8,0 -1,0 -1.582,0.004 -2.793,-1.207 C 47.996,9.582 43.669,5.255 43.669,5.255 43.481,5.067 42.33,4 41,4 39.67,4 24.453,4 23,4 c -1.453,0 -2.498,1.084 -2.686,1.271 0,0 -4.326,4.326 -5.521,5.521 C 13.598,11.987 13.018,12 12,12 V 9 C 12,8.447 11.553,8 11,8 H 5 C 4.447,8 4,8.447 4,9 v 3 c -2.211,0 -4,1.789 -4,4 v 40 c 0,2.211 1.789,4 4,4 h 56 c 2.211,0 4,-1.789 4,-4 V 16 c 0,-2.211 -1.789,-4 -4,-4 z M 6,10 h 4 v 2 c -1.24,0 -2.782,0 -4,0 z m -2,4 c 0,0 8,0 9,0 1,0 2.027,-0.613 2.707,-1.293 0.68,-0.68 5.281,-5.281 5.984,-5.984 C 22.394,6.02 23.5,6 23.5,6 h 17 c 0,0 1.074,-0.012 1.832,0.746 0.758,0.758 5.215,5.215 5.961,5.961 C 49.039,13.453 50,14 51,14 c 1,0 9,0 9,0 1.104,0 2,0.896 2,2 V 28 H 48.107 C 45.16,22.078 39.063,18 32,18 24.937,18 18.84,22.078 15.893,28 H 2 V 16 c 0,-1.104 0.896,-2 2,-2 z m 28,6 c 8.837,0 16,7.163 16,16 0,8.838 -7.163,16 -16,16 C 23.163,52 16,44.838 16,36 16,27.163 23.163,20 32,20 Z M 60,58 H 4 C 2.896,58 2,57.104 2,56 V 30 H 15.046 C 14.381,31.879 14,33.893 14,36 c 0,9.941 8.059,18 18,18 9.941,0 18,-8.059 18,-18 0,-2.107 -0.381,-4.121 -1.046,-6 H 62 v 26 c 0,1.104 -0.896,2 -2,2 z"
   id="path3571" />

	<path
   fill="#231f20"
   d="m 32,30 c 3.313,0 6,2.687 6,6 0,0.553 0.447,1 1,1 0.553,0 1,-0.447 1,-1 0,-4.418 -3.582,-8 -8,-8 -0.553,0 -1,0.447 -1,1 0,0.553 0.447,1 1,1 z"
   id="path3573" />

	<path
   fill="#231f20"
   d="m 55,24 c 1.657,0 3,-1.344 3,-3 0,-1.656 -1.343,-3 -3,-3 -1.657,0 -3,1.344 -3,3 0,1.656 1.343,3 3,3 z m 0,-4 c 0.553,0 1,0.447 1,1 0,0.553 -0.447,1 -1,1 -0.553,0 -1,-0.447 -1,-1 0,-0.553 0.447,-1 1,-1 z"
   id="path3575" />

</g>
  </g>
</svg>
