<?xml version="1.0" encoding="UTF-8" standalone="no"?>
<svg
   xmlns:dc="http://purl.org/dc/elements/1.1/"
   xmlns:cc="http://creativecommons.org/ns#"
   xmlns:rdf="http://www.w3.org/1999/02/22-rdf-syntax-ns#"
   xmlns:svg="http://www.w3.org/2000/svg"
   xmlns="http://www.w3.org/2000/svg"
   xmlns:xlink="http://www.w3.org/1999/xlink"
   xmlns:sodipodi="http://sodipodi.sourceforge.net/DTD/sodipodi-0.dtd"
   xmlns:inkscape="http://www.inkscape.org/namespaces/inkscape"
   width="100.0px"
   height="100.0px"
   viewBox="0 0 100.0 100.0"
   version="1.1"
   id="SVGRoot"
   sodipodi:docname="fotoradar.svg"
   inkscape:version="1.0.1 (3bc2e813f5, 2020-09-07)">
  <defs
     id="defs2654">
    <linearGradient
       inkscape:collect="always"
       xlink:href="#linearGradient2644"
       id="linearGradient2652"
       x1="5.031404"
       y1="7.6115336"
       x2="15.962535"
       y2="17.522093"
       gradientUnits="userSpaceOnUse"
       gradientTransform="matrix(4.4805926,0,0,4.5453603,-2.543672,-4.597162)" />
    <linearGradient
       inkscape:collect="always"
       id="linearGradient2644">
      <stop
         style="stop-color:#ff6600;stop-opacity:1"
         offset="0"
         id="stop2640" />
      <stop
         style="stop-color:#aa4400;stop-opacity:1"
         offset="1"
         id="stop2642" />
    </linearGradient>
  </defs>
  <sodipodi:namedview
     id="base"
     pagecolor="#ffffff"
     bordercolor="#666666"
     borderopacity="1.0"
     inkscape:pageopacity="0.0"
     inkscape:pageshadow="2"
     inkscape:zoom="5.8935288"
     inkscape:cx="34.331031"
     inkscape:cy="65.687864"
     inkscape:document-units="px"
     inkscape:current-layer="layer1"
     inkscape:document-rotation="0"
     showgrid="true"
     inkscape:window-width="1680"
     inkscape:window-height="987"
     inkscape:window-x="1672"
     inkscape:window-y="-8"
     inkscape:window-maximized="1">
    <inkscape:grid
       type="xygrid"
       id="grid3224" />
  </sodipodi:namedview>
  <metadata
     id="metadata2657">
    <rdf:RDF>
      <cc:Work
         rdf:about="">
        <dc:format>image/svg+xml</dc:format>
        <dc:type
           rdf:resource="http://purl.org/dc/dcmitype/StillImage" />
        <dc:title />
      </cc:Work>
    </rdf:RDF>
  </metadata>
  <g
     inkscape:label="Warstwa 1"
     inkscape:groupmode="layer"
     id="layer1">
    <path
       d="m 51.223439,97.874286 c 8.717934,-19.181391 34.871737,-31.561541 34.871737,-57.544175 0,-21.187192 -15.612517,-38.3627843 -34.871737,-38.3627843 -19.259133,0 -34.871731,17.1755923 -34.871731,38.3627843 0,25.982634 26.153797,38.362784 34.871731,57.544175 z"
       stroke="#000000"
       stroke-width="2"
       stroke-linecap="round"
       stroke-linejoin="round"
       id="path2570"
       style="fill:url(#linearGradient2652);fill-opacity:1;stroke-width:0;stroke-miterlimit:4;stroke-dasharray:none" />
    <path
       d="m 51.223439,67.437989 c 14.781524,0 26.763568,-12.76514 26.763568,-28.512719 0,-15.747101 -11.982044,-28.51272 -26.763568,-28.51272 -14.781513,0 -26.763566,12.765619 -26.763566,28.51272 0,15.747579 11.982053,28.512719 26.763566,28.512719 z"
       stroke="#000000"
       stroke-width="2"
       stroke-linecap="round"
       stroke-linejoin="round"
       id="path2568"
       style="fill:#ffffff;fill-opacity:1;stroke-width:0;stroke-miterlimit:4;stroke-dasharray:none" />
    <g
       style="fill:#000000"
       id="g856"
       transform="matrix(1.7612639,0,0,1.7612639,23.819778,9.8293212)">
      <path
         d="m 16,12.906 a 4.47,4.47 0 0 0 0,8.938 4.47,4.47 0 0 0 4.469,-4.469 A 4.47,4.47 0 0 0 16,12.906 Z m 0,7.063 A 2.5770002,2.5770002 0 1 1 15.998,14.815 2.5770002,2.5770002 0 0 1 16,19.969 Z"
         id="path842" />
      <path
         d="m 25.625,9.812 h -4.812 l -2.062,-2.75 h -5.5 l -2.062,2.75 H 6.375 C 5.618,9.812 5,10.43 5,11.188 v 12.375 c 0,0.756 0.618,1.375 1.375,1.375 h 19.25 C 26.382,24.938 27,24.321 27,23.563 V 11.188 C 27,10.43 26.382,9.812 25.625,9.812 Z M 16,23.477 A 6.103,6.103 0 1 1 16.001,11.272 6.103,6.103 0 0 1 16,23.477 Z m 9.625,-10.399 h -2.75 v -1.375 h 2.75 z"
         id="path844" />
    </g>
  </g>
</svg>
