<?xml version="1.0" encoding="UTF-8" standalone="no"?>
<!-- Created with Inkscape (http://www.inkscape.org/) -->

<svg
   xmlns:dc="http://purl.org/dc/elements/1.1/"
   xmlns:cc="http://creativecommons.org/ns#"
   xmlns:rdf="http://www.w3.org/1999/02/22-rdf-syntax-ns#"
   xmlns:svg="http://www.w3.org/2000/svg"
   xmlns="http://www.w3.org/2000/svg"
   xmlns:sodipodi="http://sodipodi.sourceforge.net/DTD/sodipodi-0.dtd"
   xmlns:inkscape="http://www.inkscape.org/namespaces/inkscape"
   width="256px"
   height="256px"
   viewBox="0 0 256 256"
   version="1.1"
   id="SVGRoot"
   inkscape:version="0.92.4 (5da689c313, 2019-01-14)"
   sodipodi:docname="rysunek.svg">
  <defs
     id="defs5298" />
  <sodipodi:namedview
     id="base"
     pagecolor="#ffffff"
     bordercolor="#666666"
     borderopacity="1.0"
     inkscape:pageopacity="0.0"
     inkscape:pageshadow="2"
     inkscape:zoom="2"
     inkscape:cx="32.129058"
     inkscape:cy="144.48743"
     inkscape:document-units="px"
     inkscape:current-layer="layer1"
     showgrid="false"
     inkscape:window-width="1920"
     inkscape:window-height="1001"
     inkscape:window-x="-9"
     inkscape:window-y="-9"
     inkscape:window-maximized="1"
     inkscape:grid-bbox="true" />
  <metadata
     id="metadata5301">
    <rdf:RDF>
      <cc:Work
         rdf:about="">
        <dc:format>image/svg+xml</dc:format>
        <dc:type
           rdf:resource="http://purl.org/dc/dcmitype/StillImage" />
        <dc:title />
      </cc:Work>
    </rdf:RDF>
  </metadata>
  <g
     inkscape:label="Layer 1"
     inkscape:groupmode="layer"
     id="layer1">
    <g
       id="g5256"
       transform="matrix(1.3409402,0,0,1.3409402,-7.4655745,-49.353557)">
      <path
         inkscape:connector-curvature="0"
         id="path5228"
         d="m 98.954173,218.41875 c 0,-1.32292 1.322917,-11.90625 1.322917,-11.90625 l 3.96875,-9.26042 c 0,0 5.29166,-18.52083 5.29166,-18.52083 0,0 5.29167,-7.9375 6.61459,-7.9375 1.32291,0 13.22916,-7.9375 13.22916,-7.9375 l 5.29167,-5.29167 3.96875,-11.90625 3.96875,-10.58333 c 0,0 5.29166,-7.9375 6.61458,-7.9375 1.32292,0 5.29167,-3.96875 5.29167,-3.96875 0,0 2.64583,-2.64584 1.32291,-3.96875 -1.32291,-1.32292 -1.32291,-5.29167 -2.64583,-5.29167 -1.32292,0 -11.90625,-3.96875 -11.90625,-3.96875 l -5.29167,-1.32292 c 0,0 -1.32291,-3.96875 -1.32291,-3.96875 v -3.96875 l 3.96875,-5.29166 11.90625,-5.29167 c 0,0 0,-6.61458 0,-6.61458 L 149.225,80.83542 138.64167,70.25208 v -3.96875 -7.9375"
         style="fill:none;stroke:#2e52a0;stroke-width:1.5;stroke-linecap:butt;stroke-linejoin:miter;stroke-miterlimit:4;stroke-dasharray:none;stroke-opacity:1" />
      <path
         inkscape:connector-curvature="0"
         d="m 161.925,155.44792 2.11667,-0.79375 10.84791,7.14375 5.02709,0.52916 m -35.98334,-7.40833 h 13.22917 l 1.85208,-1.32292 m -15.08125,9.26042 1.32292,1.32292 6.61458,5.29166 5.29167,1.32292 5.29167,-3.96875 3.96875,-1.32292 m -67.468747,-56.88541 10.583327,5.29166 15.875,1.32292 5.29167,-2.64583 m -19.84375,-15.875 2.64583,6.61458 -1.32291,10.58333 v 7.9375 l 1.85208,4.49792 m -4.49792,-46.83125 1.32292,1.852084 m -7.9375,-12.435417 3.96875,1.322917 c 0,0 1.32292,3.96875 1.32292,5.291666 0,1.322917 1.32291,3.96875 1.32291,3.96875 l 19.84375,-10.583333 m -5.29166,15.875 6.61458,-13.229167 c 0,0 5.29166,-1.322916 3.96875,-2.645833 C 133.35,67.60625 133.35,57.022917 133.35,57.022917 m -49.463366,4.743254 12.421709,9.808829 3.968747,2.645834 1.32291,3.96875 4.7625,1.852083 m 5.82084,3.439583 -5.29167,-1.322916 -2.64583,-7.9375 v -3.96875 l -5.291667,-5.291667 c 0,0 -1.32292,-5.291667 -1.32292,-6.614583 0,-1.322917 1.32292,-6.614583 1.32292,-6.614583 M 77.787503,198.575 67.204173,210.48125 M 55.297923,174.7625 v -3.96875 l 9.26042,-17.19792 -9.26042,-3.96875 m -32.01459,13.22917 15.875,-1.32292 m 9.52501,-35.71875 7.9375,3.96875 3.96875,-5.29166 m -18.52084,41.01041 c 0,0 5.29167,0 5.29167,-1.32291 0,-1.32292 5.29167,-9.26042 5.29167,-9.26042 v -2.64583 l -2.64584,-1.32292 -5.29166,-2.64583 1.32291,-6.61459 2.64584,-5.29166 2.64583,-5.29167 m 3.96875,11.90625 c 0,0 -13.22917,21.16667 -13.22917,22.48958 0,1.32292 -1.32291,7.9375 -1.32291,7.9375 m -23.21747,-48.10895 8.66538,-2.16188 m 6.35,2.38125 4.23334,5.55625 -1.32292,3.96875 m -5.29167,-27.78125 2.64584,2.64583 v 3.96875 l -2.64584,1.32292 -2.64583,1.32292 -2.64583,2.64583 1.32291,3.96875 1.32292,1.32292 3.96875,1.32291 5.29167,-1.32291 c 0,0 3.96875,-2.64584 5.29166,-2.64584 h 5.29167 2.64583 m 26.45834,-42.33333 1.32291,14.55208 h 3.96875 m -18.52083,21.16667 5.29167,-2.64583 6.61458,-6.61459 11.90625,9.26042 1.32292,2.64583 -7.9375,9.26042 m -42.33334,-26.45833 3.96875,2.64583 9.26042,-5.29167 1.32292,-1.32291 m -9.78959,-5.027087 7.14375,3.704167 2.64584,1.32292 17.19791,2.64583 m 0.79375,-7.672917 -19.05,-3.96875 h -3.43958 m 16.13958,-10.318749 0.79375,-7.9375 -4.031898,-8.593885 m 95.842315,84.264721 -0.26459,6.08541 1.05834,1.5875 4.49791,2.64584 1.05834,1.32291 c 0,0 1.05833,3.70417 1.05833,3.96875 0,0.26459 3.43958,8.73125 3.175,8.73125 -0.26458,0 0.52917,2.64584 0.52917,2.64584 L 171.71458,182.7 m -27.78125,-15.875 v -23.8125 m -41.53958,16.93333 1.85209,1.5875 0.26458,0.52917 m -8.202077,4.7625 c 0,1.32292 1.32291,0 1.32291,0 v -2.64583 c 0,0 11.906247,-3.96875 11.906247,-2.64584 0,1.32292 -1.32291,6.61459 -1.32291,6.61459 m -9.260417,2.64583 6.614577,-1.32292 5.29167,-2.64583 h 1.32292 m -1.32292,-27.78125 -0.52917,5.82083 m 8.99584,4.7625 6.08541,4.23334 m -10.31875,2.38125 1.5875,-5.55625 c 0,0 2.64584,-1.05834 2.64584,-1.32292 0,-0.26458 0.52916,-2.38125 0.52916,-2.38125 m -10.58333,8.73125 5.82083,0.52917 2.64584,5.82083 m -15.08125,-10.84792 c 0,0 3.70416,2.38125 3.96875,2.11667 0.26458,-0.26458 2.64583,-0.26458 2.64583,-0.26458 m -14.552077,3.96875 2.91041,-1.85209 4.497917,-1.32291 m -6.879167,-7.14375 -1.32291,3.175 7.408327,10.84791 m -4.762497,2.91042 5.820827,-3.70417 -0.26458,-6.35 1.85208,-6.61458 m 5.29167,3.70417 v 5.55625 l 0.79375,2.91041 2.64583,3.96875 0.52917,2.11667 m 0.52917,-17.72708 5.55625,-0.52917 6.08541,0.26458 m -26.458327,-5.55625 4.762497,3.175 h 3.175 6.87917 c -0.26459,0 1.85208,0.52917 1.85208,0.52917 0,0 2.11667,0.79375 2.11667,0.52917 0,-0.26459 1.85208,-4.49792 1.85208,-4.49792 m -12.7,-2.38125 v 8.73125 m -14.022917,-1.05833 h 10.847917 l 0.79375,1.05833 c 0,0 4.49792,0.26458 4.7625,0 0.26458,-0.26458 0.52917,-1.32292 0.52917,-1.32292 0,0 2.64583,0.52917 2.91041,0.79375 0.26459,0.26459 1.32292,0.26459 1.32292,0.26459 0,0 0.52917,3.43958 0.26458,3.43958 h -3.70416 l -1.32292,-0.26458 V 147.775 M 21.695843,117.08333 c 0,-0.26458 8.73125,-10.58333 8.99583,-10.58333 0.26458,0 2.91042,-2.38125 2.91042,-2.38125 0,0 6.87916,-5.29167 7.14375,-5.55625 0.26458,-0.26458 1.5875,-3.43958 1.5875,-3.70417 0,-0.26458 0.79375,-5.291663 0.79375,-5.291663 0.08819,-4.233333 -1.131777,-10.124398 0.404407,-12.909741 m 45.633093,41.220154 c 0,0 -4.23334,-25.399997 -4.23334,-25.66458 0,-0.264583 -0.79375,-9.260416 -0.79375,-9.260416 L 81.756253,66.8125 80.33447,53.820494 m 3.803033,72.787836 4.23334,-4.49791 0.79375,-4.49792 c 0,0 1.85208,4.49792 1.85208,4.7625 0,0.26458 3.96875,3.43958 3.96875,3.43958 m -34.39583,-13.22916 19.84375,14.55208 m 92.604157,-11.90625 -3.96875,-1.32292 -2.64583,1.32292 -3.96875,-2.64583 -5.29167,3.96875 -1.32292,-1.32292 m 23.8125,13.22917 c 0,0 -10.84791,-3.96875 -11.1125,-3.70417 -0.26458,0.26458 -7.67291,3.175 -7.9375,3.175 m 23.01875,1.85208 -3.96875,-1.32291 2.64584,-3.96875 -9.26042,-9.26042 6.61458,-7.9375 V 103.325 m -35.71875,39.6875 2.64584,-7.9375 7.9375,-6.61458 2.64583,-2.64584 m -47.625,89.42917 -1.5875,-9.26042 2.11667,-4.7625 4.49792,-3.96875 4.23333,-12.43541 1.85208,-6.35 m 23.28333,10.84791 11.37709,-0.26458 2.11666,-2.64583 M 130.43958,182.7 c 0,0 8.99584,-0.52917 9.26042,-0.79375 0.26458,-0.26458 3.43958,-0.79375 3.43958,-0.79375 0,0 6.61459,0.52917 7.14375,0.79375 0.52917,0.26458 1.85209,0.79375 1.85209,0.79375 l 11.1125,7.67292 m -19.31459,-1.05834 1.32292,-5.55625 -0.26458,-2.38125 -1.05834,-5.29166 m -18.52083,-22.48959 9.26042,6.61459 2.64583,1.32291 3.96875,5.29167 h 2.64583 v 9.26042 l -0.79375,4.49791 -0.52916,3.43959 1.32291,5.29166 1.32292,18.52084 M 64.822923,128.725 l 9.525,6.87917 m -7.14375,-9.78959 -3.96875,5.29167 h -2.64583 v 1.32292 l 2.64583,1.32291 v 14.55209 m 19.84375,11.90625 3.96875,-5.29167 3.96875,-2.64583 m -3.96875,10.58333 -3.96875,-2.64583 c 0,0 -5.29167,-2.64584 -5.29167,-3.96875 0,-1.32292 -2.64583,-6.61459 -2.64583,-6.61459 l -1.32292,-3.96875 1.32292,-5.29166 m 2.64583,-9.26042 13.22917,7.9375 h 3.96875 m -20.37292,1.05833 7.14375,4.23334 5.29167,3.96875 5.29167,1.32291 m 33.866657,-7.40833 -0.26458,3.43958 -0.79375,2.38125 0.26458,3.175 v 2.38125 l -5.02708,6.61459 -7.14375,5.02708 -1.5875,3.175 -4.23333,3.43958 m -0.52917,-32.80833 h 3.96875 l 4.7625,2.11667 10.58333,1.05833 L 127,140.36667 m -32.014577,-1.32292 3.96875,2.64583 7.937497,-2.64583 V 135.075 m -9.260417,34.39583 1.5875,0.79375 1.587497,2.38125 1.5875,-0.26458 3.175,-0.79375 2.64584,0.52917 6.35,3.96875 8.73125,3.70416 7.40833,2.91042 11.90625,1.32292 8.99583,-1.05834 5.02708,-3.175 11.1125,-7.67291 10.58334,-2.64584 m -92.339577,44.71459 -0.26459,-14.2875 1.32292,-5.55625 0.79375,-6.35 9.78958,-18.52084 -1.32291,-0.26458 m -18.78542,44.45 21.69583,1.05833 10.054167,0.52917 4.49792,2.11667 m -63.764587,-35.98334 7.9375,3.96875 14.55209,9.26042 5.82083,4.7625 7.40833,0.52917 m -47.625,-13.22917 h 9.26042 l 6.61458,-11.90625 m -6.61458,0 c 0,-1.32292 14.55208,-27.78125 14.55208,-27.78125 m 18.52084,-19.84375 -3.96875,3.96875 -3.96875,7.9375 -2.64584,3.96875 -1.32291,2.64583 -1.85209,1.85209 c 0,0 -0.79375,0.79375 -2.11666,0.79375 -1.32292,0 -2.64584,-1.32292 -2.64584,-1.32292 l -10.58333,-6.61458 -5.29167,-2.64584 -3.96875,-1.32291 -15.875,-2.64584 c 0,0 -7.528896,-1.18308 -8.851816,-1.18308 m 30.018486,64.68308 10.58333,-11.90625 19.84375,-54.23958 3.96875,-3.96875 m 0,0 c 1.32292,0 5.29167,-1.32292 5.29167,-1.32292 h 7.9375 l 5.291667,1.32292 21.16666,-1.32292 14.55208,-1.32291 6.61459,-2.64584 5.29166,-7.9375 5.29167,-11.90625 5.29167,-6.61458 5.29166,-3.96875 h 7.9375 m -46.30208,44.97917 -3.96875,-2.64584 -2.64583,-2.64583 -3.96875,-1.32292 -1.32292,1.32292 -1.32291,3.96875 m 15.87499,-31.75 v 3.96875 l 6.61459,13.22917 1.32291,3.96875 1.32292,2.64583 -6.61458,1.32292 -2.64584,1.32291 -2.64583,6.61459 2.64583,1.32291 -1.32291,2.64584 m -7.9375,-56.88542 15.875,5.291667 m 0,0 -6.61459,14.552083 M 110.86042,83.48125 h 7.9375 m -22.754167,6.879167 3.70417,2.38125 6.085417,2.381253 22.22499,8.20208 h 2.64584 2.64583 l 6.61458,1.32292 5.29167,-2.64584 9.26042,-10.58333 5.29166,-17.197917 m -68.791657,12.7 3.43958,2.38125 v 1.058334 c 0.52917,0.352777 1.05833,0.352778 1.5875,0 0.032,-0.749664 0.0294,-1.131338 -0.26458,-1.322917 -0.52764,-0.05712 -1.01844,-0.05246 -1.32292,0.264583 m -2.64583,1.058334 h 2.38125 l -2.11667,1.5875 m -23.54791,-13.758333 11.90625,2.645833 m 10.31875,6.085416 -10.31875,-6.085416 m 17.19791,26.458333 -3.96875,-9.26042 -4.182974,-16.78133 -7.9375,-27.78125 m 17.412144,53.55842 4.233327,-6.61459 10.31875,-20.90208 11.90625,-25.135416 m -30.427077,103.187496 -3.43958,-5.29166 1.05833,-4.23334 2.91042,-9.78958 1.05833,-3.175 4.762497,-10.84792 -2.645827,-10.05416 -0.52917,-5.02709 c 0.0533,-0.0433 1.19464,-0.76328 1.05833,-0.79375 -0.0663,-0.0148 0.15291,-1.11074 -0.26458,-1.32291 -0.23588,-0.11987 -1.09524,-0.47785 -1.5875,-0.26459 -0.29178,0.12641 -0.4749,0.48043 -0.52917,0.79375 -0.0621,0.3583 0.037,0.77469 0.26459,1.05834 0.2468,0.30766 0.76637,0.38318 1.05833,0.52916 m -28.575,16.93334 13.49375,1.05833 6.61458,2.64583 6.61459,5.29167 h 3.968747 9.26041 2.64584 l 11.90625,5.29167 h 6.61458 l 9.26041,2.64583 43.65625,5.29167 M 26.274698,96.510305 l 9.179475,10.518865 17.72708,11.37708 13.75834,7.40833 2.64583,0.26459 -13.22917,-7.9375 -17.99166,-10.05417 -2.91042,-1.05833 m 19.05,9.26041 9.525,-9.525 5.82083,-7.40833 1.32292,-5.29167 m -27.78125,38.36459 7.67292,-11.37709 3.43958,-4.7625 m -16.40417,71.70209 V 174.7625 l 2.64584,-37.04167 2.64583,-5.29166 11.90625,-13.22917 15.875,-19.84375 V 95.3875 l -2.64583,-17.197916 -15.875,-2.645834 -11.90626,1.322917 m -11.90624,99.218753 c 10.67449,-1.98164 22.69453,-1.34178 34.39583,-1.32292 8.38295,-3.96832 17.36398,-7.87914 25.13542,-11.90625 l 1.32291,-2.64583 5.29167,-2.64584 1.32292,3.96875 v 7.9375 l -5.29167,1.32292 -7.9375,7.9375 -10.58333,15.875 -14.55209,11.90625 c -11.02152,-7.9421 -22.63438,-14.89863 -29.10416,-30.42708 z"
         style="fill:none;stroke:#2e52a0;stroke-width:0.26458332px;stroke-linecap:butt;stroke-linejoin:miter;stroke-opacity:1"
         id="path5248"
         sodipodi:nodetypes="ccccccccccccccccccccccccccsccccccccccccccccscccccccccccccsccccccccsccccccccccccccccsccccccccccccccccccccccccccccccssccccccccccscccccccccccsccccccccccccccccccccccccccccccsccccccscscsccccsccscccsccccccsccccccccccccccccccccccccccccccccscccccccccccccccccccccccccccccccsccccccccccccccccccccccccccccccccccccccccccccccccccccccccccccccccccccsccccccccccccccccccccccccccccccccccccccccccccccccccccccccccccccccccccccccccccccccccccccccccccccccccccccccccccccccccccccccccccccccccccccccc" />
      <path
         id="path4579-9"
         d="m 100.27708,45.38125 a 88.37082,88.37082 0 0 0 -88.370827,88.37084 88.37082,88.37082 0 0 0 88.370827,88.37084 88.37082,88.37082 0 0 0 88.37084,-88.37084 88.37082,88.37082 0 0 0 -88.37084,-88.37084 z m 0,6.35 a 82.02082,82.02082 0 0 1 82.02084,82.02084 82.02082,82.02082 0 0 1 -82.02084,82.02084 82.02082,82.02082 0 0 1 -82.020827,-82.02084 82.02082,82.02082 0 0 1 82.020827,-82.02084 z"
         style="opacity:1;fill:#2e52a0;fill-opacity:1;fill-rule:nonzero;stroke:#2e52a0;stroke-width:0;stroke-miterlimit:4;stroke-dasharray:none;stroke-opacity:1;paint-order:fill markers stroke"
         inkscape:connector-curvature="0" />
    </g>
    <path
       style="opacity:1;fill:#2e52a0;fill-opacity:1;fill-rule:nonzero;stroke:#000000;stroke-width:0;stroke-miterlimit:4;stroke-dasharray:none;stroke-opacity:1;paint-order:fill markers stroke"
       d="m 125.66812,42.66095 a 54.970367,54.970367 0 0 0 -54.970371,54.9702 54.970367,54.970367 0 0 0 12.325375,34.64261 l -0.02388,3e-4 22.134466,36.84033 22.13499,36.84034 21.03534,-37.47154 21.03485,-37.47102 -0.0835,6e-4 A 54.970367,54.970367 0 0 0 180.63843,97.63113 54.970367,54.970367 0 0 0 125.66809,42.660916 Z m 0,28.039959 A 26.930615,26.930615 0 0 1 152.5985,97.63115 26.930615,26.930615 0 0 1 125.66812,124.56204 26.930615,26.930615 0 0 1 98.73724,97.63115 26.930615,26.930615 0 0 1 125.66812,70.700909 Z"
       id="path3745-7"
       inkscape:connector-curvature="0" />
  </g>
</svg>
