<?xml version="1.0" encoding="utf-8"?>
<!-- Generator: Adobe Illustrator 23.0.1, SVG Export Plug-In . SVG Version: 6.00 Build 0)  -->
<svg version="1.1" id="Warstwa_1" xmlns="http://www.w3.org/2000/svg" xmlns:xlink="http://www.w3.org/1999/xlink" x="0px" y="0px"
	 viewBox="0 0 600 600" style="enable-background:new 0 0 600 600;" xml:space="preserve">
<style type="text/css">
	.st0{fill:none;stroke:#2F53A0;stroke-width:1.5;}
	.st1{fill:none;stroke:#2F53A0;stroke-width:0.2646;}
	.st2{fill:#2F53A0;}
	.st3{enable-background:new    ;}
	.st4{fill:none;}
</style>
<g id="layer1">
	<g id="g5256" transform="matrix(2.9035094,0,0,2.9673331,18.215071,-76.795811)">
		<path id="path5228" class="st0" d="M94.7,169.6c0-0.9,0.9-8.4,0.9-8.4l2.8-6.6l3.8-13.1c0,0,3.8-5.6,4.7-5.6s9.4-5.6,9.4-5.6
			l3.8-3.8l2.8-8.4l2.8-7.5c0,0,3.8-5.6,4.7-5.6c0.9,0,3.8-2.8,3.8-2.8s1.8-1.8,0.9-2.8c-0.9-0.9-0.9-3.8-1.8-3.8s-8.4-2.8-8.4-2.8
			l-3.8-0.9l-0.9-2.8V86l2.8-3.8l8.4-3.8v-4.7l-0.9-1.8l-7.5-7.5v-2.8V56"/>
		<path id="path5248" class="st1" d="M139.3,124.9l1.5-0.6l7.7,5l3.5,0.4 M126.5,124.5h9.4l1.3-0.9 M126.5,130.2l0.9,0.9l4.7,3.8
			l3.8,0.9l3.8-2.8l2.8-0.9 M94.7,91.7l7.5,3.8l11.3,0.9l3.8-1.8 M103.1,83.3l1.8,4.7l-0.9,7.5v5.6l1.3,3.2 M102.1,71.1l0.9,1.3
			 M97.4,63.6l2.8,0.9c0,0,0.9,2.8,0.9,3.8c0,0.9,0.9,2.8,0.9,2.8l14-7.5 M112.5,74.8l4.7-9.4c0,0,3.8-0.9,2.8-1.8
			c-0.9-0.9-0.9-8.4-0.9-8.4 M84,58.5l8.8,7l2.8,1.8l0.9,2.8l3.4,1.3 M104,73.9l-3.8-0.9l-1.8-5.6v-2.8l-3.8-3.8
			c0,0-0.9-3.8-0.9-4.7s0.9-4.7,0.9-4.7 M79.6,155.5l-7.5,8.4 M63.7,138.7v-2.8l6.6-12.2l-6.6-2.8 M41,130.2l11.3-0.9 M59,103.9
			l5.6,2.8l2.8-3.8 M54.3,132.1c0,0,3.8,0,3.8-0.9c0-0.9,3.8-6.6,3.8-6.6v-1.8l-1.9-0.9l-3.8-1.8l0.9-4.7l1.8-3.8l1.8-3.8
			 M63.7,116.1c0,0-9.4,15-9.4,16c0,0.9-0.9,5.6-0.9,5.6 M36.9,103.6L43,102 M47.5,103.8l3,4l-0.9,2.8 M45.9,90.8l1.8,1.8v2.8
			l-1.8,0.9L44,97.3l-1.8,1.8l0.9,2.8l0.9,0.9l2.8,0.9l3.8-0.9c0,0,2.8-1.8,3.8-1.8h3.8h1.8 M78.7,71.1l0.9,10.4h2.8 M69.3,96.4
			l3.8-1.8l4.7-4.7l8.4,6.6l0.9,1.8l-5.6,6.6 M51.5,86.1l2.8,1.8l6.6-3.8l0.9-0.9 M54.9,79.7l5,2.6l1.8,0.9l12.2,1.8 M74.5,79.7
			L61,76.9h-2.4 M70,69.6l0.6-5.6l-2.8-6.1 M135.7,117.6l-0.2,4.3l0.8,1.1l3.2,1.8l0.8,0.9c0,0,0.8,2.6,0.8,2.8s2.4,6.2,2.3,6.2
			c-0.2,0,0.4,1.8,0.4,1.8l2.6,7.5 M126.5,133v-16.9 M97.1,128.1l1.3,1.1l0.2,0.4 M92.7,133c0,0.9,0.9,0,0.9,0v-1.8
			c0,0,8.4-2.8,8.4-1.8c0,0.9-0.9,4.7-0.9,4.7 M94.7,135.8l4.7-0.9l3.8-1.8h0.9 M103.1,113.3l-0.4,4.1 M109.1,120.8l4.3,3
			 M106.1,125.5l1.1-4c0,0,1.8-0.8,1.8-0.9s0.4-1.7,0.4-1.7 M102,125.1l4.1,0.4l1.8,4.1 M97.3,121.9c0,0,2.6,1.7,2.8,1.5
			c0.2-0.2,1.8-0.2,1.8-0.2 M91.6,126l2.1-1.3l3.2-0.9 M92,118.7l-0.9,2.3l5.2,7.7 M93,130.8l4.1-2.6l-0.2-4.5l1.3-4.7 M102,121.6v4
			l0.6,2.1l1.8,2.8l0.4,1.5 M105.2,119.3l4-0.4l4.3,0.2 M94.7,115.2l3.4,2.3h2.3h4.9c-0.2,0,1.3,0.4,1.3,0.4s1.5,0.6,1.5,0.4
			c0-0.2,1.3-3.2,1.3-3.2 M100.3,113.3v6.2 M90.3,118.7H98l0.6,0.8c0,0,3.2,0.2,3.4,0s0.4-0.9,0.4-0.9s1.8,0.4,2.1,0.6
			s0.9,0.2,0.9,0.2s0.4,2.4,0.2,2.4h-2.6l-0.9-0.2v-2.1 M39.8,97.7c0-0.2,6.2-7.5,6.4-7.5s2.1-1.7,2.1-1.7s4.9-3.8,5-4
			c0.2-0.2,1.1-2.4,1.1-2.6c0-0.2,0.6-3.8,0.6-3.8c0.1-3-0.8-7.2,0.3-9.1 M87.7,98.3c0,0-3-18-3-18.2s-0.6-6.6-0.6-6.6l-1.7-11.4
			l-1-9.2 M84.1,104.5l3-3.2l0.6-3.2c0,0,1.3,3.2,1.3,3.4s2.8,2.4,2.8,2.4 M67.4,94.5l14,10.4 M147.1,96.4l-2.8-0.9l-1.8,0.9
			l-2.8-1.8l-3.8,2.8l-0.9-0.9 M151.9,105.8c0,0-7.7-2.8-7.9-2.6s-5.5,2.3-5.6,2.3 M154.7,106.7l-2.8-0.9l1.8-2.8l-6.6-6.6l4.7-5.6
			V88 M126.5,116.1l1.8-5.6l5.6-4.7l1.8-1.8 M102.1,167.3l-1.1-6.5l1.5-3.4l3.2-2.8l3-8.8l1.3-4.5 M126.5,148.9l8.1-0.2l1.5-1.8
			 M116.9,144.3c0,0,6.4-0.4,6.6-0.6c0.2-0.2,2.4-0.6,2.4-0.6s4.7,0.4,5,0.6c0.4,0.2,1.3,0.6,1.3,0.6l7.9,5.5 M126.5,148.9l0.9-4
			l-0.2-1.7l-0.8-3.8 M113.4,123.6l6.6,4.7l1.8,0.9l2.8,3.8h1.8v6.6l-0.6,3.2l-0.4,2.4l0.9,3.8l0.9,13.1 M70.4,106l6.7,4.9
			 M72.1,103.9l-2.8,3.8h-1.8v0.9l1.8,0.9v10.4 M83.4,128.3l2.8-3.8l2.8-1.8 M86.1,130.2l-2.8-1.8c0,0-3.8-1.8-3.8-2.8
			c0-0.9-1.8-4.7-1.8-4.7l-0.9-2.8l0.9-3.8 M79.6,107.7l9.4,5.6h2.8 M77.4,114.1l5,3l3.8,2.8l3.8,0.9 M114,115.5l-0.2,2.4l-0.6,1.7
			l0.2,2.3v1.7l-3.5,4.7l-5,3.5l-1.1,2.3l-3,2.4 M100.3,113.3h2.8l3.4,1.5l7.5,0.8l0.6-1.3 M91.8,113.3l2.8,1.8l5.6-1.8v-2.8
			 M93.7,134.9l1.1,0.6l1.1,1.7l1.1-0.2l2.3-0.6l1.8,0.4l4.5,2.8l6.2,2.6l5.2,2.1l8.4,0.9l6.4-0.8l3.5-2.3l7.9-5.5l7.5-1.8
			 M85.4,166.6l-0.2-10.1l0.9-4l0.6-4.5l7-13.1l-0.9-0.2 M79.4,166.3l15.4,0.8l7.2,0.4l3.2,1.5 M59.9,143.3l5.6,2.8l10.4,6.6
			l4.1,3.4l5.2,0.4 M51.5,147.1h6.6l4.7-8.4 M58.1,138.7c0-0.9,10.4-19.7,10.4-19.7 M81.5,104.8l-2.8,2.8l-2.8,5.6l-1.8,2.8L73,118
			l-1.3,1.3c0,0-0.6,0.6-1.5,0.6c-0.9,0-1.8-0.9-1.8-0.9l-7.5-4.7l-3.8-1.8l-2.8-0.9L43,109.7c0,0-5.3-0.9-6.3-0.9 M58.1,154.6
			l7.5-8.4l14-38.4l2.8-2.8 M82.5,104.8c0.9,0,3.8-0.9,3.8-0.9h5.6l3.8,0.9l15-0.9L121,103l4.7-1.8l3.8-5.6l3.8-8.4l3.8-4.7l3.8-2.8
			h5.6 M113.4,111.4l-2.8-1.8l-1.8-1.8l-2.8-0.9l-0.9,0.9l-0.9,2.8 M115.3,88v2.8l4.7,9.4l0.9,2.8l0.9,1.8l-4.7,0.9l-1.8,0.9
			l-1.8,4.7l1.8,0.9l-0.9,1.8 M108.7,73.9l11.3,3.8 M120,77.7L115.3,88 M103.1,73.9h5.6 M92.5,78.8l2.6,1.7l4.3,1.7l15.7,5.8h1.8
			h1.8l4.7,0.9l3.8-1.8l6.6-7.5l3.8-12.2 M89,76.3l2.4,1.7v0.8c0.4,0.3,0.8,0.3,1.1,0c0-0.5,0-0.8-0.2-0.9c-0.4-0.1-0.7-0.1-0.9,0.2
			 M89.6,78.8h1.7l-1.5,1.1 M73,70.1l8.4,1.8 M88.8,76.3L81.5,72 M93.7,90.8l-2.8-6.6l-3-11.9l-5.6-19.7 M94.7,90.6l3-4.7l7.3-14.8
			l8.4-17.8 M91.8,126.5l-2.4-3.8l0.8-3l2.1-7l0.8-2.3l3.4-7.7l-1.8-7.2l-0.4-3.5c0.1,0,0.9-0.6,0.8-0.6c-0.1,0,0.1-0.8-0.2-0.9
			c-0.1-0.1-0.8-0.4-1.1-0.2c-0.2,0.1-0.4,0.4-0.4,0.6c-0.1,0.3,0,0.6,0.2,0.8c0.1,0.2,0.6,0.3,0.8,0.4 M73.8,104.1l9.6,0.8l4.7,1.8
			l4.7,3.8h2.8h6.6h1.8l8.4,3.8h4.7l6.6,1.8l31,3.8 M43.1,83.1l6.5,7.4l12.6,8.1l9.8,5.2l1.8,0.2l-9.4-5.6l-12.8-7.2l-2.1-0.8
			 M63.1,97.2l6.7-6.7l4.1-5.2l0.9-3.8 M55.2,108.6l5.5-8.1l2.4-3.4 M51.5,148v-9.4l1.8-26.2l1.8-3.8l8.4-9.4l11.3-14v-2.8L73,70.2
			l-11.3-1.8l-8.4,0.9 M44.9,139.6c7.6-1.4,16.1-0.9,24.4-0.9c6-2.8,12.3-5.6,17.8-8.4l0.9-1.8l3.8-1.8l0.9,2.8v5.6l-3.8,0.9
			l-5.6,5.6l-7.5,11.3l-10.4,8.4C57.7,155.5,49.5,150.6,44.9,139.6z"/>
		<path id="path4579-9" class="st2" d="M95.6,46.9C61,46.9,32.9,75,32.9,109.6l0,0c0,34.6,28.1,62.7,62.7,62.7l0,0
			c34.6,0,62.7-28.1,62.7-62.7l0,0C158.2,74.9,130.2,46.9,95.6,46.9L95.6,46.9L95.6,46.9z M95.6,51.4c32.1,0,58.2,26,58.2,58.2l0,0
			c0,32.1-26,58.2-58.2,58.2l0,0c-32.1,0-58.2-26-58.2-58.2l0,0C37.4,77.5,63.5,51.4,95.6,51.4L95.6,51.4L95.6,51.4z"/>
	</g>
	<path id="path3745-7" class="st2" d="M293.7,111.2c-46.6,0-84.4,38.7-84.4,86.2c0,19.8,6.7,39,18.9,54.4h-0.1l34,57.8l34,57.8
		l32.3-58.8l32.3-58.8h-0.1c11.3-15,17.4-33.4,17.4-52.4C378.1,149.8,340.3,111.2,293.7,111.2L293.7,111.2z M293.7,155.2
		c22.8,0,41.4,18.9,41.4,42.3s-18.5,42.3-41.4,42.3l0,0c-22.8,0-41.4-18.9-41.4-42.3l0,0C252.3,174.2,270.8,155.2,293.7,155.2z"/>
	<g id="flowRoot339" transform="matrix(7.7387941,0,0,7.0096225,-4549.1386,-1223.4025)">
	</g>
	<g id="flowRoot347">
	</g>
</g>
<g class="st3">
	<path class="st2" d="M26.1,564.9V464.4h18.3L78.8,554l34.1-89.6h18.4v100.5h-11.1v-91.2l-34.7,91.2H71.9l-34.7-91.2v91.2H26.1z"/>
	<path class="st2" d="M201.4,557.4c-1.6,2.9-4.2,5.1-7.7,6.5c-3.5,1.3-8.4,2-14.7,2c-11.1,0-18.6-1.6-22.4-4.7
		c-3.8-3.2-5.7-9.1-5.7-17.7c0-5,0.5-8.9,1.3-11.8c0.9-2.9,2.4-5.1,4.3-6.8c1.7-1.4,4.2-2.4,7.5-3.1c3.3-0.6,8.1-0.9,14.3-0.9
		c6.5,0,11.3,0.5,14.7,1.6s5.9,2.8,7.7,5.3v-12.3c0-5.8-1.1-9.6-3.4-11.3c-2.3-1.7-7.9-2.6-17-2.6c-6.6,0-10.9,0.7-13.1,2.1
		s-3.3,4-3.4,7.7h-10.5v-1.6c0-6.1,2-10.4,5.9-13c3.9-2.6,10.7-3.9,20.4-3.9c7.5,0,13.2,0.3,17.1,1c3.9,0.6,6.8,1.7,8.7,3
		c2.1,1.6,3.5,3.6,4.4,6c0.9,2.4,1.3,6.5,1.3,12.3v49.8h-9.6L201.4,557.4z M200.8,546.8v-7.5c0-3.4-1.7-5.9-5.2-7.4
		c-3.5-1.6-8.9-2.4-16.5-2.4c-6.9,0-11.5,0.9-13.8,2.6c-2.3,1.8-3.5,5.1-3.5,10c0,5.6,1.2,9.3,3.7,11.2c2.4,1.9,7.4,2.8,14.7,2.8
		c6.6,0,11.7-0.8,15.2-2.4C199.1,552,200.8,549.8,200.8,546.8z"/>
	<path class="st2" d="M232.6,493.8h10v11.1c1.7-4.1,4.4-7.2,8-9.1s8.5-2.9,14.6-2.9c10.1,0,17.3,2.1,21.4,6.3
		c4.1,4.2,6.2,11.5,6.2,21.8v16.9c0,10.3-2.1,17.6-6.2,21.8c-4.1,4.2-11.3,6.3-21.4,6.3c-5.9,0-10.5-0.9-13.9-2.6
		c-3.4-1.7-6.2-4.6-8.2-8.5V592h-10.5L232.6,493.8L232.6,493.8z M243.1,535.2c0,7.4,1.7,12.8,5.2,16.1c3.5,3.4,9,5,16.6,5
		c6.9,0,11.5-1.2,13.7-3.7s3.4-8.2,3.4-17.1v-12.2c0-9-1.2-14.7-3.4-17.2s-6.9-3.7-13.7-3.7c-7.6,0-13.1,1.7-16.6,5
		c-3.5,3.4-5.2,8.8-5.2,16.2V535.2z"/>
	<path class="st2" d="M305.1,464.4h11.5l23,87l23.1-87h15.8l23.2,87l23-87h11.6l-27.4,100.5h-14.2l-24-88.5l-23.6,88.5h-14.8
		L305.1,464.4z"/>
	<path class="st2" d="M490.6,557.4c-1.6,2.9-4.2,5.1-7.7,6.5c-3.5,1.3-8.4,2-14.7,2c-11.1,0-18.6-1.6-22.4-4.7
		c-3.8-3.2-5.7-9.1-5.7-17.7c0-5,0.5-8.9,1.3-11.8s2.4-5.1,4.3-6.8c1.7-1.4,4.2-2.4,7.5-3.1c3.3-0.6,8.1-0.9,14.3-0.9
		c6.5,0,11.3,0.5,14.7,1.6c3.4,1.1,5.9,2.8,7.7,5.3v-12.3c0-5.8-1.1-9.6-3.4-11.3s-7.9-2.6-17-2.6c-6.6,0-10.9,0.7-13.1,2.1
		c-2.2,1.4-3.3,4-3.4,7.7h-10.5v-1.6c0-6.1,2-10.4,5.9-13c3.9-2.6,10.7-3.9,20.4-3.9c7.5,0,13.2,0.3,17.1,1c3.9,0.6,6.8,1.7,8.7,3
		c2.1,1.6,3.5,3.6,4.4,6c0.9,2.4,1.3,6.5,1.3,12.3v49.8h-9.6L490.6,557.4z M490,546.8v-7.5c0-3.4-1.7-5.9-5.2-7.4s-8.9-2.4-16.5-2.4
		c-6.9,0-11.5,0.9-13.8,2.6c-2.3,1.8-3.5,5.1-3.5,10c0,5.6,1.2,9.3,3.7,11.2c2.4,1.9,7.4,2.8,14.7,2.8c6.6,0,11.7-0.8,15.2-2.4
		C488.3,552,490,549.8,490,546.8z"/>
	<path class="st2" d="M513.9,493.8h10.6l21.1,61.2l21-61.2H577l-26.8,77.3c-2.9,8.4-5.9,14.1-8.9,17c-3,2.9-7.1,4.5-12.3,4.5
		c-0.8,0-1.6,0-2.5-0.1c-0.9,0-1.9-0.2-3-0.4l0-9.3c0.3,0,0.7,0.1,1.2,0.1c0.5,0,1.2,0,2,0c3.2,0,5.8-0.7,7.5-2.2
		c1.8-1.5,3.5-4.3,5-8.5l2.6-7.4h-3.2L513.9,493.8z"/>
</g>
<rect x="772" y="849.6" class="st4" width="5" height="4"/>
<rect x="682" y="-254.4" class="st4" width="542" height="323"/>
</svg>
