<?xml version="1.0" encoding="UTF-8" standalone="no"?>
<svg
   xmlns:dc="http://purl.org/dc/elements/1.1/"
   xmlns:cc="http://creativecommons.org/ns#"
   xmlns:rdf="http://www.w3.org/1999/02/22-rdf-syntax-ns#"
   xmlns:svg="http://www.w3.org/2000/svg"
   xmlns="http://www.w3.org/2000/svg"
   xmlns:sodipodi="http://sodipodi.sourceforge.net/DTD/sodipodi-0.dtd"
   xmlns:inkscape="http://www.inkscape.org/namespaces/inkscape"
   height="800px"
   width="800px"
   version="1.1"
   id="_x32_"
   viewBox="0 0 512 512"
   xml:space="preserve"
   fill="#ffffff"
   stroke="#ffffff"
   sodipodi:docname="niezadodnosc.svg"
   inkscape:version="1.0.1 (3bc2e813f5, 2020-09-07)"><metadata
   id="metadata22"><rdf:RDF><cc:Work
       rdf:about=""><dc:format>image/svg+xml</dc:format><dc:type
         rdf:resource="http://purl.org/dc/dcmitype/StillImage" /></cc:Work></rdf:RDF></metadata><defs
   id="defs20" /><sodipodi:namedview
   pagecolor="#ffffff"
   bordercolor="#666666"
   borderopacity="1"
   objecttolerance="10"
   gridtolerance="10"
   guidetolerance="10"
   inkscape:pageopacity="0"
   inkscape:pageshadow="2"
   inkscape:window-width="1680"
   inkscape:window-height="987"
   id="namedview18"
   showgrid="false"
   inkscape:zoom="0.50810804"
   inkscape:cx="278.13485"
   inkscape:cy="374.73597"
   inkscape:window-x="1672"
   inkscape:window-y="-8"
   inkscape:window-maximized="1"
   inkscape:current-layer="_x32_"
   inkscape:document-rotation="0" />

<rect
   style="fill:#5b98d6;fill-rule:evenodd;stroke:#00aad4;stroke-width:0;stroke-linecap:round;stroke-linejoin:round;paint-order:stroke markers fill;fill-opacity:1"
   id="rect24"
   width="588.56476"
   height="597.84393"
   x="-35.7911"
   y="-26.511927" /><g
   id="SVGRepo_bgCarrier"
   stroke-width="0" />

<g
   id="SVGRepo_tracerCarrier"
   stroke-linecap="round"
   stroke-linejoin="round" />

<g
   id="SVGRepo_iconCarrier"
   style="fill:#ffffff"
   transform="matrix(0.98353973,0,0,0.89823266,9.5822168,19.58946)"> <style
   type="text/css"
   id="style4"> .st0{fill:#000000;} </style> <g
   id="g14"
   style="fill:#ffffff"> <path
   class="st0"
   d="m 255.995,73.024 c -66.278,0.118 -119.896,53.722 -120.022,120 0.126,66.293 53.743,119.896 120.022,120.022 66.279,-0.126 119.889,-53.728 120.007,-120.022 -0.119,-66.278 -53.729,-119.881 -120.007,-120 z"
   id="path6"
   style="fill:#ffffff" /> <path
   class="st0"
   d="m 434.111,203.817 c -4.419,-5.923 -4.419,-15.626 0,-21.557 l 9.629,-12.958 c 4.411,-5.93 2.965,-14.099 -3.202,-18.162 l -13.491,-8.896 c -6.168,-4.048 -9.481,-13.172 -7.368,-20.252 l 4.618,-15.471 c 2.112,-7.079 -2.031,-14.262 -9.221,-15.96 L 399.368,86.81 C 392.185,85.105 385.95,77.677 385.506,70.309 l -0.949,-16.138 c -0.437,-7.36 -6.79,-12.698 -14.121,-11.86 l -16.049,1.86 c -7.339,0.86 -15.737,-3.988 -18.665,-10.763 l -6.405,-14.826 c -2.935,-6.775 -10.741,-9.621 -17.339,-6.308 l -14.44,7.227 c -6.598,3.321 -16.152,1.631 -21.223,-3.736 L 265.217,4.025 c -5.071,-5.367 -13.374,-5.367 -18.436,0 l -11.104,11.742 c -5.063,5.367 -14.618,7.057 -21.216,3.736 l -14.44,-7.227 c -6.605,-3.313 -14.404,-0.467 -17.332,6.308 l -6.412,14.826 c -2.928,6.775 -11.327,11.623 -18.666,10.763 l -16.042,-1.86 c -7.339,-0.837 -13.699,4.5 -14.144,11.86 l -0.934,16.138 c -0.437,7.368 -6.672,14.796 -13.862,16.501 l -15.715,3.751 c -7.191,1.697 -11.327,8.88 -9.222,15.96 l 4.626,15.471 c 2.106,7.079 -1.201,16.204 -7.376,20.252 l -13.484,8.896 c -6.167,4.062 -7.606,12.232 -3.202,18.162 l 9.636,12.958 c 4.404,5.93 4.404,15.634 0,21.557 l -9.636,12.958 c -4.404,5.938 -2.965,14.099 3.202,18.162 l 13.484,8.902 c 6.175,4.055 9.482,13.173 7.376,20.252 l -4.626,15.471 c -2.105,7.072 2.032,14.262 9.222,15.975 l 15.715,3.728 c 7.19,1.713 13.425,9.14 13.862,16.516 l 0.934,16.123 c 0.445,7.368 6.805,12.706 14.144,11.868 l 16.042,-1.883 c 7.339,-0.845 15.737,4.01 18.658,10.786 l 6.419,14.826 c 2.928,6.782 10.727,9.621 17.332,6.3 l 14.44,-7.227 c 6.598,-3.307 16.153,-1.631 21.216,3.743 l 11.104,11.742 c 5.062,5.367 13.365,5.367 18.436,0 l 11.097,-11.742 c 5.071,-5.374 14.625,-7.05 21.223,-3.743 l 14.44,7.227 c 6.598,3.321 14.404,0.482 17.331,-6.3 l 6.413,-14.826 c 2.928,-6.776 11.326,-11.63 18.665,-10.786 l 16.049,1.883 c 7.331,0.837 13.684,-4.5 14.121,-11.868 l 0.949,-16.123 c 0.445,-7.376 6.679,-14.803 13.862,-16.516 l 15.708,-3.728 c 7.19,-1.712 11.334,-8.903 9.221,-15.975 l -4.618,-15.471 c -2.112,-7.079 1.201,-16.197 7.368,-20.252 l 13.491,-8.902 c 6.168,-4.062 7.614,-12.224 3.202,-18.162 z M 255.995,330.948 C 179.821,330.94 118.086,269.214 118.086,193.024 c 0,-76.16 61.734,-137.894 137.909,-137.909 76.167,0.015 137.909,61.749 137.909,137.909 0,76.19 -61.742,137.916 -137.909,137.924 z"
   id="path8"
   style="fill:#ffffff" /> <path
   class="st0"
   d="m 222.993,382.935 c -0.208,-0.074 -0.564,-0.156 -0.897,-0.156 l -14.077,7.043 c -4.262,2.134 -9.036,3.276 -13.78,3.276 -12.15,0 -23.143,-7.264 -27.984,-18.502 l -6.42,-14.81 c 0.03,0.081 0,0.111 -0.06,0.111 -0.103,0 -0.348,-0.096 -0.54,-0.178 l -8.651,1.016 -64.492,98.042 65.404,-11.312 15.5,64.537 73.84,-112.261 c -2.573,-1.467 -5.004,-3.202 -7.065,-5.382 z"
   id="path10"
   style="fill:#ffffff" /> <path
   class="st0"
   d="m 352.792,359.717 c -0.267,0.103 -0.616,0.288 -0.815,0.474 l -6.234,14.418 c -4.841,11.223 -15.827,18.487 -27.991,18.487 -4.737,0 -9.518,-1.142 -13.795,-3.291 l -14.026,-7.02 c -0.43,0.023 -0.741,0.096 -0.934,0.149 l -10.764,11.422 c -2.446,2.58 -5.366,4.582 -8.48,6.175 L 343.066,512 l 15.5,-64.537 65.404,11.312 -64.654,-98.295 z"
   id="path12"
   style="fill:#ffffff" /> </g> </g>

</svg>
