<?xml version="1.0" encoding="UTF-8" standalone="no"?>
<svg
   xmlns:dc="http://purl.org/dc/elements/1.1/"
   xmlns:cc="http://creativecommons.org/ns#"
   xmlns:rdf="http://www.w3.org/1999/02/22-rdf-syntax-ns#"
   xmlns:svg="http://www.w3.org/2000/svg"
   xmlns="http://www.w3.org/2000/svg"
   xmlns:sodipodi="http://sodipodi.sourceforge.net/DTD/sodipodi-0.dtd"
   xmlns:inkscape="http://www.inkscape.org/namespaces/inkscape"
   fill="#ffffff"
   height="800px"
   width="800px"
   version="1.1"
   id="Capa_1"
   viewBox="-61.2 -61.2 734.40 734.40"
   xml:space="preserve"
   stroke="#ffffff"
   sodipodi:docname="szybkosc.svg"
   inkscape:version="1.0.1 (3bc2e813f5, 2020-09-07)"><metadata
   id="metadata28"><rdf:RDF><cc:Work
       rdf:about=""><dc:format>image/svg+xml</dc:format><dc:type
         rdf:resource="http://purl.org/dc/dcmitype/StillImage" /></cc:Work></rdf:RDF></metadata><defs
   id="defs26" /><sodipodi:namedview
   pagecolor="#ffffff"
   bordercolor="#666666"
   borderopacity="1"
   objecttolerance="10"
   gridtolerance="10"
   guidetolerance="10"
   inkscape:pageopacity="0"
   inkscape:pageshadow="2"
   inkscape:window-width="1680"
   inkscape:window-height="987"
   id="namedview24"
   showgrid="false"
   inkscape:zoom="0.50810804"
   inkscape:cx="208.46278"
   inkscape:cy="441.25516"
   inkscape:window-x="1672"
   inkscape:window-y="-8"
   inkscape:window-maximized="1"
   inkscape:current-layer="Capa_1"
   inkscape:document-rotation="0" />

<g
   id="SVGRepo_bgCarrier"
   stroke-width="0" />

<g
   id="SVGRepo_tracerCarrier"
   stroke-linecap="round"
   stroke-linejoin="round" />



<rect
   style="fill:#dd5836;fill-rule:evenodd;stroke:#dbe3db;stroke-width:0;stroke-linecap:round;stroke-linejoin:round;paint-order:stroke markers fill;fill-opacity:1"
   id="rect30"
   width="848.02539"
   height="829.01135"
   x="-106.83366"
   y="-84.016823" /><g
   id="SVGRepo_iconCarrier"
   transform="matrix(1.2231834,0,0,1.4078345,-60.688757,-82.966555)"> <g
   id="g20"> <g
   id="g18"
   transform="matrix(0.87258549,0,0,0.8665725,38.988979,39.644804)"> <path
   d="m 175.205,239.62 c 0.127,-1.965 -0.533,-3.902 -1.833,-5.381 l -58.84,-66.941 c -1.3,-1.479 -3.135,-2.381 -5.102,-2.508 -1.975,-0.126 -3.902,0.533 -5.381,1.833 -27.037,23.766 -49.479,51.794 -66.706,83.305 -0.944,1.729 -1.165,3.762 -0.611,5.651 0.554,1.89 1.836,3.483 3.565,4.427 l 78.205,42.748 c 1.131,0.619 2.352,0.912 3.557,0.912 2.627,0 5.174,-1.398 6.523,-3.866 11.386,-20.828 26.229,-39.359 44.114,-55.08 1.482,-1.298 2.384,-3.133 2.509,-5.1 z"
   id="path4" /> <path
   d="m 201.462,214.829 c 1.334,2.515 3.907,3.948 6.568,3.948 1.174,0 2.365,-0.279 3.473,-0.867 20.962,-11.117 43.512,-18.371 67.025,-21.561 4.064,-0.551 6.913,-4.293 6.362,-8.358 L 272.911,99.675 c -0.551,-4.064 -4.304,-6.909 -8.358,-6.362 -35.708,4.843 -69.949,15.857 -101.772,32.736 -3.623,1.922 -5.002,6.416 -3.082,10.041 z"
   id="path6" /> <path
   d="M 105.785,334.345 19.768,311.007 c -1.901,-0.514 -3.929,-0.255 -5.638,0.725 -1.709,0.98 -2.958,2.598 -3.475,4.499 C 3.586,342.295 0,369.309 0,396.523 c 0,4.657 0.111,9.329 0.342,14.284 0.185,3.981 3.468,7.083 7.414,7.083 0.116,0 0.234,-0.002 0.35,-0.008 l 89.031,-4.113 c 1.967,-0.09 3.82,-0.96 5.145,-2.415 1.327,-1.455 2.022,-3.38 1.93,-5.347 -0.155,-3.341 -0.23,-6.444 -0.23,-9.484 0,-18.02 2.365,-35.873 7.029,-53.066 1.071,-3.958 -1.268,-8.037 -5.226,-9.112 z"
   id="path8" /> <path
   d="M 438.731,120.745 C 406.32,105.12 371.691,95.437 335.806,91.959 c -1.972,-0.198 -3.918,0.408 -5.439,1.659 -1.521,1.252 -2.481,3.056 -2.671,5.018 l -8.593,88.712 c -0.396,4.082 2.594,7.713 6.677,8.108 23.652,2.291 46.463,8.669 67.8,18.954 1.015,0.49 2.118,0.738 3.225,0.738 0.826,0 1.654,-0.139 2.45,-0.416 1.859,-0.649 3.385,-2.012 4.24,-3.786 l 38.7,-80.287 c 1.783,-3.694 0.232,-8.134 -3.464,-9.914 z"
   id="path10" /> <path
   d="m 569.642,245.337 c 0.48,-1.911 0.184,-3.932 -0.828,-5.624 -18.432,-30.835 -41.933,-57.983 -69.848,-80.686 -1.529,-1.242 -3.48,-1.824 -5.447,-1.627 -1.959,0.203 -3.758,1.174 -5,2.702 l -56.237,69.144 c -1.242,1.529 -1.828,3.488 -1.625,5.447 0.201,1.959 1.173,3.758 2.702,5.002 18.47,15.019 34.015,32.975 46.205,53.369 1.392,2.326 3.855,3.618 6.383,3.618 1.297,0 2.61,-0.34 3.803,-1.054 L 566.251,249.9 c 1.689,-1.011 2.909,-2.652 3.391,-4.563 z"
   id="path12" /> <path
   d="m 598.044,304.939 c -1.228,-3.915 -5.397,-6.096 -9.308,-4.867 l -85.048,26.648 c -3.915,1.226 -6.093,5.393 -4.867,9.306 6.104,19.486 9.199,39.839 9.199,60.494 0,3.041 -0.076,6.144 -0.23,9.484 -0.092,1.967 0.602,3.892 1.93,5.347 1.327,1.456 3.178,2.325 5.145,2.415 l 89.031,4.113 c 0.118,0.005 0.234,0.008 0.35,0.008 3.944,0 7.228,-3.103 7.414,-7.083 0.229,-4.955 0.342,-9.627 0.342,-14.284 -0.002,-31.214 -4.696,-62.026 -13.958,-91.581 z"
   id="path14" /> <path
   d="m 350.55246,441.80496 c 0,-1.11298 -0.0483,-2.21988 -0.1266,-3.32244 l 81.93105,-104.82559 c 2.00842,-2.56568 2.28268,-6.49826 -0.44854,-8.64778 -2.72893,-2.15124 -7.79694,-1.99204 -11.27514,-0.58973 l -141.9766,57.18273 c -2.73468,-0.21026 -5.49583,-0.32234 -8.28115,-0.32234 -21.41706,0 -41.55079,6.29561 -56.69396,17.72695 -15.14433,11.4322 -23.48418,26.63169 -23.48418,42.79907 0,16.16738 8.34215,31.36601 23.48418,42.79734 15.14317,11.4322 35.2769,17.72695 56.69396,17.72695 21.41705,0 41.55078,-6.29562 56.69396,-17.72695 15.14317,-11.43133 23.48302,-26.63169 23.48302,-42.79821 z"
   id="path16"
   sodipodi:nodetypes="scccccsssssss" /> </g> </g> </g></svg>
