<?xml version="1.0" encoding="UTF-8" standalone="no"?>
<svg
   xmlns:dc="http://purl.org/dc/elements/1.1/"
   xmlns:cc="http://creativecommons.org/ns#"
   xmlns:rdf="http://www.w3.org/1999/02/22-rdf-syntax-ns#"
   xmlns:svg="http://www.w3.org/2000/svg"
   xmlns="http://www.w3.org/2000/svg"
   xmlns:xlink="http://www.w3.org/1999/xlink"
   xmlns:sodipodi="http://sodipodi.sourceforge.net/DTD/sodipodi-0.dtd"
   xmlns:inkscape="http://www.inkscape.org/namespaces/inkscape"
   width="100.0px"
   height="100.0px"
   viewBox="0 0 100.0 100.0"
   version="1.1"
   id="SVGRoot"
   sodipodi:docname="utrudnienia.svg"
   inkscape:version="1.0.1 (3bc2e813f5, 2020-09-07)">
  <defs
     id="defs2654">
    <linearGradient
       inkscape:collect="always"
       xlink:href="#linearGradient2644"
       id="linearGradient2652"
       x1="10.30177"
       y1="13.616021"
       x2="15.962535"
       y2="17.522093"
       gradientUnits="userSpaceOnUse"
       gradientTransform="matrix(4.4805926,0,0,4.5453603,-2.543672,-4.597162)" />
    <linearGradient
       inkscape:collect="always"
       id="linearGradient2644">
      <stop
         style="stop-color:#d40000;stop-opacity:1;"
         offset="0"
         id="stop2640" />
      <stop
         style="stop-color:#960000;stop-opacity:1"
         offset="1"
         id="stop2642" />
    </linearGradient>
  </defs>
  <sodipodi:namedview
     id="base"
     pagecolor="#ffffff"
     bordercolor="#666666"
     borderopacity="1.0"
     inkscape:pageopacity="0.0"
     inkscape:pageshadow="2"
     inkscape:zoom="5.74489"
     inkscape:cx="87.173556"
     inkscape:cy="68.516922"
     inkscape:document-units="px"
     inkscape:current-layer="layer1"
     inkscape:document-rotation="0"
     showgrid="true"
     inkscape:window-width="1680"
     inkscape:window-height="987"
     inkscape:window-x="1672"
     inkscape:window-y="-8"
     inkscape:window-maximized="1">
    <inkscape:grid
       type="xygrid"
       id="grid3224" />
  </sodipodi:namedview>
  <metadata
     id="metadata2657">
    <rdf:RDF>
      <cc:Work
         rdf:about="">
        <dc:format>image/svg+xml</dc:format>
        <dc:type
           rdf:resource="http://purl.org/dc/dcmitype/StillImage" />
        <dc:title></dc:title>
      </cc:Work>
    </rdf:RDF>
  </metadata>
  <g
     inkscape:label="Warstwa 1"
     inkscape:groupmode="layer"
     id="layer1">
    <path
       d="m 51.223439,97.874286 c 8.717934,-19.181391 34.871737,-31.561541 34.871737,-57.544175 0,-21.187192 -15.612517,-38.3627843 -34.871737,-38.3627843 -19.259133,0 -34.871731,17.1755923 -34.871731,38.3627843 0,25.982634 26.153797,38.362784 34.871731,57.544175 z"
       stroke="#000000"
       stroke-width="2"
       stroke-linecap="round"
       stroke-linejoin="round"
       id="path2570"
       style="fill:url(#linearGradient2652);fill-opacity:1;stroke-width:0;stroke-miterlimit:4;stroke-dasharray:none" />
    <path
       d="m 51.223439,67.437989 c 14.781524,0 26.763568,-12.76514 26.763568,-28.512719 0,-15.747101 -11.982044,-28.51272 -26.763568,-28.51272 -14.781513,0 -26.763566,12.765619 -26.763566,28.51272 0,15.747579 11.982053,28.512719 26.763566,28.512719 z"
       stroke="#000000"
       stroke-width="2"
       stroke-linecap="round"
       stroke-linejoin="round"
       id="path2568"
       style="fill:#ffffff;fill-opacity:1;stroke-width:0;stroke-miterlimit:4;stroke-dasharray:none" />
    <g
       id="g848"
       transform="matrix(0.07727831,0,0,0.09237625,31.462682,11.66207)">
	<path
   class="st0"
   d="m 509.676,461.364 -32.74,-51.559 C 473.712,403.231 465.983,398.93 457.405,398.93 H 433.981 L 415.852,353.813 H 96.146 L 78.016,398.93 H 54.594 c -8.574,0 -16.301,4.301 -19.527,10.875 L 2.328,461.364 c -3.969,8.066 -2.808,17.23 3.064,24.457 5.865,7.215 15.701,11.551 26.221,11.551 h 161.192 126.383 161.203 c 10.52,0 20.348,-4.336 26.221,-11.551 5.871,-7.227 7.025,-16.391 3.064,-24.457 z"
   id="path842" />

	<path
   class="st0"
   d="M 331.809,144.625 288.362,36.508 c -5.311,-13.219 -18.119,-21.879 -32.366,-21.879 -14.242,0 -27.051,8.66 -32.359,21.879 l -31.606,78.649 -11.842,29.23 h 0.096 l -0.096,0.238 z"
   id="path844" />

	<polygon
   class="st0"
   points="387.838,284.086 359.82,214.352 152.172,214.352 131.84,264.965 124.158,283.844 124.254,283.844 124.158,284.086 "
   id="polygon846" />

</g>
  </g>
  <style
     type="text/css"
     id="style840">
	.st0{fill:#000000;}
</style>
</svg>
